<svg xmlns="http://www.w3.org/2000/svg" viewBox="0 0 64 64" fill="none">
  <defs>
    <linearGradient id="shield-gradient" x1="0%" y1="0%" x2="100%" y2="100%">
      <stop offset="0%" style="stop-color:#1890ff;stop-opacity:1" />
      <stop offset="100%" style="stop-color:#096dd9;stop-opacity:1" />
    </linearGradient>
  </defs>
  
  <!-- Shield Background -->
  <path d="M32 4 L50 10 L50 28 C50 40 32 56 32 56 C32 56 14 40 14 28 L14 10 Z" 
        fill="url(#shield-gradient)" 
        stroke="#0050b3" 
        stroke-width="2"/>
  
  <!-- Heart Symbol -->
  <path d="M32 44 C32 44 42 36 42 28 C42 24 39 22 36 22 C34 22 32 24 32 24 C32 24 30 22 28 22 C25 22 22 24 22 28 C22 36 32 44 32 44 Z"
        fill="white"
        opacity="0.95"/>
  
  <!-- Highlight Effect -->
  <ellipse cx="24" cy="16" rx="8" ry="5" fill="white" opacity="0.2"/>
</svg>